<?xml version="1.0" encoding="UTF-8" standalone="no"?>
<!-- Generator: Adobe Illustrator 22.1.0, SVG Export Plug-In . SVG Version: 6.00 Build 0)  -->

<svg
   xmlns:dc="http://purl.org/dc/elements/1.1/"
   xmlns:cc="http://creativecommons.org/ns#"
   xmlns:rdf="http://www.w3.org/1999/02/22-rdf-syntax-ns#"
   xmlns:svg="http://www.w3.org/2000/svg"
   xmlns="http://www.w3.org/2000/svg"
   xmlns:sodipodi="http://sodipodi.sourceforge.net/DTD/sodipodi-0.dtd"
   xmlns:inkscape="http://www.inkscape.org/namespaces/inkscape"
   version="1.1"
   id="Ebene_1"
   x="0px"
   y="0px"
   viewBox="0 0 728.54952 321.76868"
   xml:space="preserve"
   sodipodi:docname="logo.svg"
   width="728.5495"
   height="321.76868"
   inkscape:version="0.92.2 (5c3e80d, 2017-08-06)"><metadata
     id="metadata55"><rdf:RDF><cc:Work
         rdf:about=""><dc:format>image/svg+xml</dc:format><dc:type
           rdf:resource="http://purl.org/dc/dcmitype/StillImage" /><dc:title></dc:title></cc:Work></rdf:RDF></metadata><defs
     id="defs53" /><sodipodi:namedview
     pagecolor="#ffffff"
     bordercolor="#666666"
     borderopacity="1"
     objecttolerance="10"
     gridtolerance="10"
     guidetolerance="10"
     inkscape:pageopacity="0"
     inkscape:pageshadow="2"
     inkscape:window-width="1920"
     inkscape:window-height="1148"
     id="namedview51"
     showgrid="false"
     fit-margin-top="10"
     fit-margin-left="10"
     fit-margin-right="10"
     fit-margin-bottom="10"
     inkscape:zoom="0.33932423"
     inkscape:cx="174.39999"
     inkscape:cy="-83.449994"
     inkscape:window-x="-8"
     inkscape:window-y="-8"
     inkscape:window-maximized="1"
     inkscape:current-layer="Ebene_1" /><style
     type="text/css"
     id="style2">
	.st0{fill:none;stroke:#063F63;stroke-width:1.1214;stroke-linecap:round;stroke-linejoin:round;stroke-miterlimit:10;}
	.st1{fill:#063F63;}
</style><g
     id="g4600"
     transform="translate(-153.7,-163.13132)"><g
       id="g24"><line
         id="line4"
         y2="228"
         x2="698.59998"
         y1="173.7"
         x1="696.70001"
         class="st0"
         style="fill:none;stroke:#063f63;stroke-width:1.1214;stroke-linecap:round;stroke-linejoin:round;stroke-miterlimit:10" /><line
         id="line6"
         y2="228"
         x2="566.29999"
         y1="173.7"
         x1="696.70001"
         class="st0"
         style="fill:none;stroke:#063f63;stroke-width:1.1214;stroke-linecap:round;stroke-linejoin:round;stroke-miterlimit:10" /><line
         id="line8"
         y2="188.60001"
         x2="770.59998"
         y1="242.3"
         x1="861.79999"
         class="st0"
         style="fill:none;stroke:#063f63;stroke-width:1.1214;stroke-linecap:round;stroke-linejoin:round;stroke-miterlimit:10" /><polyline
         id="polyline10"
         points="695.2,390.3 623.7,316.2 710.4,316.2  "
         class="st0"
         style="fill:none;stroke:#063f63;stroke-width:1.1214;stroke-linecap:round;stroke-linejoin:round;stroke-miterlimit:10" /><line
         id="line12"
         y2="316.20001"
         x2="625.09998"
         y1="291.10001"
         x1="559"
         class="st0"
         style="fill:none;stroke:#063f63;stroke-width:1.1214;stroke-linecap:round;stroke-linejoin:round;stroke-miterlimit:10" /><polygon
         id="polygon14"
         points="566.3,228 559,291.1 626,221.8 625.4,315.8 656.6,267.3 698.6,228 755.1,264.3 788.9,341.5 861.8,309.9 861.8,242.3 815.3,248.2 770.6,188.6 696.7,173.7 625.1,221.4 "
         class="st0"
         style="fill:none;stroke:#063f63;stroke-width:1.1214;stroke-linecap:round;stroke-linejoin:round;stroke-miterlimit:10" /><polyline
         id="polyline16"
         points="755.1,264.3 815.3,248.2 788.9,341.5 696.7,390.3 710.4,316.2 656.1,268.5 755.1,264.3  "
         class="st0"
         style="fill:none;stroke:#063f63;stroke-width:1.1214;stroke-linecap:round;stroke-linejoin:round;stroke-miterlimit:10" /><line
         id="line18"
         y2="248.2"
         x2="815.29999"
         y1="309.89999"
         x1="861.79999"
         class="st0"
         style="fill:none;stroke:#063f63;stroke-width:1.1214;stroke-linecap:round;stroke-linejoin:round;stroke-miterlimit:10" /><polyline
         id="polyline20"
         points="656.1,268.5 625.1,221.4 698.6,228 770.6,188.6  "
         class="st0"
         style="fill:none;stroke:#063f63;stroke-width:1.1214;stroke-linecap:round;stroke-linejoin:round;stroke-miterlimit:10" /><polyline
         id="polyline22"
         points="788.9,341.5 710.4,316.2 755.1,264.3  "
         class="st0"
         style="fill:none;stroke:#063f63;stroke-width:1.1214;stroke-linecap:round;stroke-linejoin:round;stroke-miterlimit:10" /></g><g
       id="g38"><path
         id="path26"
         d="m 576.7,228.6 c 0,5.8 -4.7,10.4 -10.4,10.4 -5.8,0 -10.4,-4.7 -10.4,-10.4 0,-5.8 4.7,-10.4 10.4,-10.4 5.7,-0.1 10.4,4.6 10.4,10.4 z"
         class="st1"
         inkscape:connector-curvature="0"
         style="fill:#063f63" /><circle
         id="ellipse28"
         cy="242.3"
         cx="861.79999"
         class="st1"
         transform="matrix(0.1907,-0.9817,0.9817,0.1907,459.6378,1042.0266)"
         r="10.4"
         style="fill:#063f63" /><circle
         id="circle30"
         r="20.4"
         cy="227.89999"
         cx="698.59998"
         class="st1"
         style="fill:#063f63" /><path
         id="path32"
         d="m 777.1,182.1 c 3.6,3.6 3.6,9.5 0,13.1 -3.6,3.6 -9.5,3.6 -13.1,0 -3.6,-3.6 -3.6,-9.5 0,-13.1 3.6,-3.7 9.5,-3.7 13.1,0 z"
         class="st1"
         inkscape:connector-curvature="0"
         style="fill:#063f63" /><path
         id="path34"
         d="m 632.8,215 c 3.6,3.6 3.6,9.5 0,13.1 -3.6,3.6 -9.5,3.6 -13.1,0 -3.6,-3.6 -3.6,-9.5 0,-13.1 3.6,-3.6 9.5,-3.6 13.1,0 z"
         class="st1"
         inkscape:connector-curvature="0"
         style="fill:#063f63" /><path
         id="path36"
         d="m 805.1,325.5 c 8.9,8.9 8.9,23.3 0,32.2 -8.9,8.9 -23.3,8.9 -32.2,0 -8.9,-8.9 -8.9,-23.3 0,-32.2 8.9,-8.9 23.3,-8.9 32.2,0 z"
         class="st1"
         inkscape:connector-curvature="0"
         style="fill:#063f63" /></g><path
       id="path40"
       d="m 227.6,347.5 c 17.9,0 30.8,6.2 42.8,16.5 1.4,1.4 1.6,3.5 0.2,5 -1.6,1.6 -3.5,3.4 -5,5 -1.6,1.8 -2.7,1.6 -4.6,-0.2 -9,-8 -21.8,-13.8 -33.6,-13.8 -28,0 -49.2,23.4 -49.2,50.8 0,27.3 21.2,51.1 49.2,51.1 19.5,0 31.8,-7.4 31.8,-7.4 v -24.8 h -20.3 c -1.9,0 -3.4,-1.4 -3.4,-3.2 v -6.6 c 0,-1.9 1.4,-3.4 3.4,-3.4 h 30.6 c 1.8,0 3.2,1.6 3.2,3.4 v 40.5 c 0,0.9 -0.7,2.3 -1.4,2.8 0,0 -18,11.7 -43.7,11.7 -35.4,0 -63.9,-28.1 -63.9,-63.5 0,-35.4 28.5,-63.9 63.9,-63.9 z"
       class="st1"
       inkscape:connector-curvature="0"
       style="fill:#063f63" /><path
       id="path42"
       d="m 325.2,400.6 c 18.6,0 32,13.8 32,32.4 0,1.2 -0.2,3.5 -0.4,4.8 -0.2,1.8 -1.6,3 -3.2,3 h -51 c 0.7,11.9 11.2,23 23.7,23 7.4,0 13.5,-2.8 17.5,-5.3 2.5,-1.4 3.5,-2.3 5,-0.4 1.1,1.4 1.9,2.7 3,4.1 1.2,1.6 1.9,2.7 -0.7,4.6 -4.2,3.4 -13.8,8.1 -26,8.1 -21.4,0 -34.7,-16.8 -34.7,-37.2 0.1,-20 13.3,-37.1 34.8,-37.1 z m 19.8,30.2 c -0.5,-10.3 -9,-19.5 -19.8,-19.5 -11.9,0 -21.1,8.5 -22.3,19.5 z"
       class="st1"
       inkscape:connector-curvature="0"
       style="fill:#063f63" /><path
       id="path44"
       d="m 377.8,352.6 c 0,-1.8 1.4,-3.4 3.4,-3.4 H 427 c 21.2,0 38.6,16.6 38.6,37.7 0,16.3 -10.8,29.9 -26.2,36.1 l 24.2,44.9 c 1.2,2.3 0,5.1 -3,5.1 h -9 c -1.6,0 -2.5,-0.9 -2.8,-1.6 l -23.5,-46.9 h -33.8 v 45.1 c 0,1.8 -1.6,3.4 -3.4,3.4 h -6.9 c -1.9,0 -3.4,-1.6 -3.4,-3.4 z m 48.3,60.4 c 13.6,0 25.5,-11.3 25.5,-25.8 0,-13.4 -11.9,-25 -25.5,-25 H 391.8 V 413 Z"
       class="st1"
       inkscape:connector-curvature="0"
       style="fill:#063f63" /><path
       id="path46"
       d="m 487.3,352.6 c 0,-1.8 1.4,-3.4 3.2,-3.4 h 39.6 c 34.2,0 62.1,27.8 62.1,61.8 0,34.3 -28,62.1 -62.1,62.1 h -39.6 c -1.8,0 -3.2,-1.6 -3.2,-3.4 z m 40,108.3 c 29,0 50.1,-20.7 50.1,-49.9 0,-29 -21.1,-49.7 -50.1,-49.7 h -26.5 v 99.6 z"
       class="st1"
       inkscape:connector-curvature="0"
       style="fill:#063f63" /><path
       id="path48"
       d="m 618,352.6 c 0,-1.8 1.6,-3.4 3.4,-3.4 h 7.1 c 1.8,0 3.4,1.6 3.4,3.4 v 117.1 c 0,1.8 -1.6,3.4 -3.4,3.4 h -7.1 c -1.8,0 -3.4,-1.6 -3.4,-3.4 z"
       class="st1"
       inkscape:connector-curvature="0"
       style="fill:#063f63" /></g></svg>